<?xml version="1.0" standalone="no"?>
<!DOCTYPE svg PUBLIC "-//W3C//DTD SVG 20010904//EN"
 "http://www.w3.org/TR/2001/REC-SVG-20010904/DTD/svg10.dtd">
<svg version="1.0" xmlns="http://www.w3.org/2000/svg"
 width="16.000000pt" height="16.000000pt" viewBox="0 0 16.000000 16.000000"
 preserveAspectRatio="xMidYMid meet">
<metadata>
Created by potrace 1.11, written by Peter Selinger 2001-2013
</metadata>
<g transform="translate(0.000000,16.000000) scale(0.006926,-0.006926)"
fill="#000000" stroke="none">
<path d="M1966 1468 c-28 -28 -33 -40 -29 -63 11 -59 66 -95 117 -75 26 10 56
56 56 87 0 29 -42 71 -78 78 -28 6 -37 2 -66 -27z"/>
<path d="M1810 1362 l0 -58 -73 -72 c-40 -39 -77 -72 -84 -72 -6 0 -27 18 -46
39 -40 44 -39 44 -117 42 l-55 -1 80 -80 80 -80 1 -74 c1 -100 3 -102 60 -101
l49 1 3 89 3 89 50 50 c31 31 49 57 48 70 -4 59 0 58 67 -7 l66 -64 1 -114 2
-114 55 0 c86 0 85 -2 83 119 -1 103 -1 106 25 129 15 13 64 62 110 108 l82
85 -86 -2 -85 -2 -54 -51 c-30 -28 -57 -51 -62 -51 -4 0 -50 41 -101 90 -52
50 -96 90 -98 90 -2 0 -4 -26 -4 -58z"/>
<path d="M1643 1352 c-27 -4 -52 -37 -48 -60 2 -9 4 -20 4 -24 2 -15 44 -30
67 -24 33 9 46 37 33 74 -11 33 -22 40 -56 34z"/>
<path d="M37 1183 c-12 -11 -8 -43 6 -44 6 -1 27 0 45 1 l32 2 0 -121 0 -121
31 0 30 0 -1 83 c-3 166 -5 157 35 155 40 -1 48 4 50 32 2 19 -5 20 -110 20
-61 0 -115 -3 -118 -7z"/>
<path d="M280 1186 c0 -4 23 -42 50 -86 46 -73 50 -85 50 -140 0 -59 0 -60 29
-60 28 0 28 1 29 61 0 55 5 68 50 142 l51 82 -32 3 c-17 2 -33 0 -34 -5 -2 -4
-17 -30 -34 -57 l-31 -49 -32 54 c-27 45 -37 55 -64 57 -18 2 -32 1 -32 -2z"/>
<path d="M570 1058 c-29 -73 -54 -139 -57 -145 -3 -9 5 -13 26 -13 25 0 33 6
44 33 14 31 17 33 71 34 55 1 57 0 71 -33 12 -28 19 -34 44 -34 l31 0 -21 53
c-94 240 -92 237 -125 237 -31 0 -32 -2 -84 -132z"/>
<path d="M869 1105 c-29 -16 -54 -66 -51 -102 3 -34 29 -81 51 -93 45 -24 111
-9 134 30 22 36 22 37 -8 42 -18 4 -29 -1 -39 -18 -28 -41 -76 -13 -76 45 0
20 4 41 8 47 14 21 42 24 60 6 9 -9 23 -16 30 -16 6 1 17 2 22 3 24 3 8 40
-24 55 -41 19 -73 20 -107 1z"/>
<path d="M1105 1108 c-11 -6 -21 -11 -22 -12 -1 -1 -4 -12 -8 -26 -5 -22 -3
-26 18 -25 14 1 32 9 41 17 21 21 51 16 51 -8 0 -15 -9 -20 -44 -25 -71 -9
-101 -62 -63 -109 21 -26 73 -30 99 -8 13 10 17 10 20 1 3 -7 17 -13 31 -13
l27 0 -3 92 c-3 79 -6 96 -24 111 -23 19 -92 23 -123 5z"/>
<path d="M1312 1011 c3 -99 4 -104 25 -107 25 -4 31 12 31 78 -1 77 24 109 66
86 13 -7 16 -25 16 -87 0 -78 0 -79 25 -77 31 1 32 5 31 100 -2 69 -5 81 -25
97 -28 23 -64 24 -96 3 -21 -13 -25 -14 -25 -2 0 8 -10 14 -25 14 l-26 0 3
-105z"/>
<path d="M30 840 c0 -20 7 -20 1115 -20 1108 0 1115 0 1115 20 0 20 -7 20
-1115 20 -1108 0 -1115 0 -1115 -20z"/>
</g>
</svg>
