<?xml version="1.0" standalone="no"?>
<!DOCTYPE svg PUBLIC "-//W3C//DTD SVG 20010904//EN"
 "http://www.w3.org/TR/2001/REC-SVG-20010904/DTD/svg10.dtd">
<svg version="1.0" xmlns="http://www.w3.org/2000/svg"
 width="16.000000pt" height="16.000000pt" viewBox="0 0 16.000000 16.000000"
 preserveAspectRatio="xMidYMid meet">
<metadata>
Created by potrace 1.11, written by Peter Selinger 2001-2013
</metadata>
<g transform="translate(0.000000,16.000000) scale(0.003333,-0.003333)"
fill="#000000" stroke="none">
<path d="M1852 2688 c-16 -29 -43 -78 -59 -108 -17 -30 -59 -107 -93 -170 -35
-63 -81 -149 -103 -190 -22 -41 -46 -84 -53 -95 -25 -35 -17 -41 54 -40 72 0
71 -1 113 82 11 21 17 21 173 21 l161 -1 30 -51 30 -51 68 0 c37 0 67 1 67 3
0 2 -19 38 -42 80 -54 102 -203 374 -238 437 -15 28 -38 69 -50 93 -12 23 -23
42 -25 42 -2 0 -17 -24 -33 -52z m77 -290 c22 -42 41 -79 41 -82 0 -3 -38 -5
-85 -4 -47 0 -85 4 -85 8 0 4 12 29 26 55 14 27 32 62 40 78 9 16 17 27 18 25
2 -1 22 -37 45 -80z"/>
<path d="M137 2660 c2 -78 -1 -76 107 -75 57 0 97 -4 99 -10 2 -5 3 -115 2
-243 0 -128 2 -236 5 -240 3 -5 30 -8 60 -8 l55 1 5 250 5 250 100 0 100 0 2
63 2 62 -272 0 -272 0 2 -50z"/>
<path d="M881 2673 c13 -21 42 -66 64 -100 22 -35 51 -82 65 -105 14 -22 42
-68 63 -100 l37 -59 0 -113 0 -112 60 0 c33 1 60 3 61 6 1 3 2 55 3 115 2 93
5 115 23 140 11 17 37 57 58 90 20 33 50 79 66 103 16 23 29 45 29 48 0 3 18
32 40 65 l40 60 -77 -3 -77 -3 -80 -127 c-44 -70 -83 -125 -86 -123 -4 2 -42
60 -85 129 l-78 126 -75 0 -74 0 23 -37z"/>
<path d="M2653 2692 c-217 -78 -283 -349 -124 -511 121 -123 320 -126 444 -5
20 20 37 40 37 44 0 4 -21 24 -46 43 l-47 37 -37 -39 c-70 -72 -191 -69 -263
7 -28 29 -55 100 -52 137 6 67 48 130 107 161 65 34 174 13 217 -42 10 -13 22
-24 26 -24 13 0 95 63 95 74 0 17 -81 84 -129 107 -64 30 -161 35 -228 11z"/>
<path d="M3435 2697 c-187 -62 -272 -256 -190 -434 107 -236 447 -235 559 2
73 153 8 336 -147 413 -58 29 -165 38 -222 19z"/>
<path d="M4115 2400 c0 -170 2 -311 5 -311 3 -1 31 -2 63 -3 l57 -1 0 182 0
183 96 -92 c53 -51 111 -107 129 -124 114 -109 167 -155 178 -151 9 3 12 82
12 315 l0 312 -63 0 -63 0 3 -180 c2 -99 0 -179 -3 -178 -4 2 -74 66 -155 144
-82 78 -167 158 -188 178 -73 68 -71 75 -71 -274z"/>
</g>
</svg>
